<svg width="83" height="41" fill="none" xmlns="http://www.w3.org/2000/svg"><path d="M42.872 34.934c-1.597-.106-3.438-.386-4.89-.807a24.302 24.302 0 01-1.685-.624c-5.056-2.342-8.578-7.454-8.578-13.385 0-8.135 6.619-14.761 14.759-14.761 8.068 0 14.641 6.513 14.754 14.556h5.332C62.451 8.93 53.487.032 42.478.032c-11.075 0-20.09 9.008-20.09 20.086 0 7.637 4.296 14.279 10.584 17.672 1.136.6 2.765 1.22 3.319 1.39 1.792.533 3.992.888 5.95 1.036.665.05 2.987.076 3.664.079h36.717v-5.31H45.967c-.487 0-2.618-.02-3.095-.05zm3.095-8.338c-.388 0-2.416-.014-2.79-.045-.635-.054-1.555-.149-2.146-.284-.668-.179-1.295-.415-1.577-.57a6.338 6.338 0 01-3.33-5.58 6.354 6.354 0 016.354-6.356c3.438 0 6.233 2.735 6.345 6.152h5.123C53.838 13.67 48.749 8.64 42.478 8.64c-6.341 0-11.481 5.138-11.481 11.478 0 4.47 2.563 8.332 6.295 10.223.574.337 1.654.689 1.962.769 1.054.277 2.47.466 3.618.55.425.036 2.504.052 2.943.055v.007H82.62v-5.126H45.967zm-26.864 13.68h-5.367V5.368H5.893V0h13.21v40.275zM0 8.05v5.162h5.893v27.062h5.157V8.051H0z" fill="#D91920"/></svg>