<svg width="30" height="23" fill="none" xmlns="http://www.w3.org/2000/svg"><path d="M20.169 5.042l5.108 6.13-5.108 6.13a.998.998 0 00.127 1.4l1.019.85a.997.997 0 001.4-.128l6.452-7.743a.828.828 0 000-1.018l-6.453-7.742a.997.997 0 00-1.4-.128l-1.018.849a.998.998 0 00-.127 1.4zm-9.447 16.876l1.27.384a.997.997 0 001.24-.663l6.051-19.972a.997.997 0 00-.663-1.24L17.351.042a.997.997 0 00-1.24.664L10.06 20.678a.997.997 0 00.663 1.24zm-4.095-2.494c.35.42.98.478 1.4.128l1.019-.85c.42-.35.477-.98.127-1.4l-5.108-6.13 5.109-6.13a.998.998 0 00-.127-1.4l-1.019-.849a.997.997 0 00-1.4.127L.175 10.663a.828.828 0 000 1.018l6.452 7.743z" fill="#fff"/></svg>