<svg width="29" height="29" fill="none" xmlns="http://www.w3.org/2000/svg"><path d="M14.5 0a14.5 14.5 0 00-8.978 25.886 1.262 1.262 0 001.563-1.98 11.979 11.979 0 01-3.455-4.362h4.93c.266 1.986.81 3.926 1.614 5.762C11.605 28.37 13.314 29 14.5 29a14.501 14.501 0 100-29zm10.85 9.457h-4.887a18.868 18.868 0 00-1.89-6.198 12.023 12.023 0 016.777 6.198zm1.128 5.043c0 .848-.092 1.693-.271 2.522h-5.491c.05-.807.088-1.64.088-2.522 0-.883-.038-1.715-.088-2.522h5.132c.117-.002.234-.021.346-.056.188.846.283 1.71.284 2.578zm-15.667 2.522a33.104 33.104 0 01-.094-2.522c0-.857.031-1.721.094-2.522h7.377c.063.8.094 1.64.094 2.522 0 .883-.031 1.721-.094 2.522H10.81zm3.688-14.5c1.148 0 2.686 2.59 3.392 6.935h-6.783c.706-4.344 2.244-6.935 3.391-6.935zm-4.098.737A18.87 18.87 0 008.51 9.457H3.65a12.023 12.023 0 016.75-6.198zM2.521 14.5c0-.867.096-1.732.283-2.579.113.036.23.055.347.057h5.132c-.05.807-.088 1.64-.088 2.522 0 .883 0 1.696.088 2.522H2.792A12.071 12.071 0 012.52 14.5zm8.593 5.044h6.777c-.706 4.343-2.244 6.934-3.392 6.934-.63 0-1.393-.857-2.042-2.244a18.41 18.41 0 01-1.343-4.69zm7.483 6.197a18.871 18.871 0 001.892-6.197h4.886a12.023 12.023 0 01-6.778 6.197z" fill="#000"/></svg>