<svg width="24" height="26" fill="none" xmlns="http://www.w3.org/2000/svg"><path d="M19.028 5.235h-.798C17.74 2.252 15.1 0 11.97 0 8.838 0 6.2 2.313 5.707 5.296H4.91c-2.7 0-4.91 2.191-4.91 4.87V21.13C0 23.81 2.21 26 4.91 26h8.164c.675 0 1.228-.548 1.228-1.217 0-.67-.553-1.218-1.228-1.218H4.91c-1.35 0-2.455-1.095-2.455-2.435V10.104c0-1.339 1.105-2.434 2.455-2.434h.737v1.947c0 .67.552 1.218 1.228 1.218.675 0 1.227-.548 1.227-1.218V7.67h7.796l-.062 1.947c0 .67.491 1.218 1.167 1.279h.06c.676 0 1.229-.548 1.229-1.157l.06-2.009h.738c1.35 0 2.455 1.096 2.455 2.435V21.13c0 1.34-1.105 2.435-2.456 2.435-.675 0-1.227.548-1.227 1.218 0 .67.552 1.217 1.228 1.217 2.7 0 4.91-2.191 4.91-4.87V10.104c-.061-2.678-2.21-4.87-4.972-4.87zm-7.059-2.8c1.78 0 3.315 1.217 3.806 2.86h-7.55c.43-1.704 1.964-2.86 3.744-2.86z" fill="#000"/></svg>