<svg width="330" height="330" fill="none" xmlns="http://www.w3.org/2000/svg"><circle cx="165" cy="165" r="155.132" fill="#FEFC93" stroke="#262626" stroke-width="19.735"/><path d="M186.639 208.535h.001a65.143 65.143 0 10-65.142-65.143v.001a65.222 65.222 0 0065.141 65.142zm39.649-91.634a47.683 47.683 0 018.03 25.741h-.034v.75a47.725 47.725 0 01-47.645 47.684 47.684 47.684 0 1139.649-74.175zM82.25 239.012l-.001.312.048.049a8.733 8.733 0 005.387 7.715 8.725 8.725 0 009.49-1.876l.001-.001 35.907-35.907a8.737 8.737 0 000-12.351 8.735 8.735 0 00-12.352 0l-35.904 35.905-.002.001a8.73 8.73 0 00-2.574 6.153z" fill="#262626" stroke="#000" stroke-width="1.5"/></svg>