<svg width="185" height="185" fill="none" xmlns="http://www.w3.org/2000/svg"><path d="M157.251 60.811a12.158 12.158 0 004.761 1.988 12.21 12.21 0 005.164-.162 12.146 12.146 0 004.625-2.28 12.027 12.027 0 003.245-3.986 97.197 97.197 0 009.835-33.45 20.614 20.614 0 00-.957-8.784 20.755 20.755 0 00-11.43-12.427A20.854 20.854 0 00164.242 0h-9.079a12.194 12.194 0 00-4.922 1.012 12.098 12.098 0 00-4.084 2.906 11.977 11.977 0 00-2.54 4.3 11.888 11.888 0 00-.559 4.952 12.327 12.327 0 004.212 7.818c2.33 2 5.325 3.073 8.407 3.013h4.661a73.165 73.165 0 01-6.719 21.21 12.235 12.235 0 00-1.085 8.464 12.32 12.32 0 004.717 7.136zm-57 0a12.158 12.158 0 004.761 1.988 12.21 12.21 0 005.164-.162 12.146 12.146 0 004.625-2.28 12.027 12.027 0 003.245-3.986 97.197 97.197 0 009.835-33.45 20.614 20.614 0 00-.957-8.784 20.755 20.755 0 00-11.43-12.427A20.854 20.854 0 00107.242 0h-9.08a12.196 12.196 0 00-4.921 1.012 12.103 12.103 0 00-4.084 2.906 11.977 11.977 0 00-2.54 4.3 11.901 11.901 0 00-.56 4.952 12.329 12.329 0 004.213 7.818c2.33 2 5.326 3.073 8.407 3.013h4.661a73.176 73.176 0 01-6.718 21.21 12.235 12.235 0 00-1.086 8.464 12.323 12.323 0 004.717 7.136z" fill="#fff"/><path d="M23.874 95.48V35.805A11.935 11.935 0 0135.81 23.87h11.936a11.935 11.935 0 100-23.87H35.809A35.806 35.806 0 00.004 35.805v124.362a24.823 24.823 0 0011.487 21.364 23.877 23.877 0 0025.631-.538l29.838-19.871h82.234A35.805 35.805 0 00185 125.317V98.463a11.932 11.932 0 00-11.935-11.935 11.937 11.937 0 00-11.935 11.935v26.854a11.936 11.936 0 01-11.936 11.935H59.68l-35.806 23.87V95.48z" fill="#fff"/></svg>