<svg width="50" height="50" fill="none" xmlns="http://www.w3.org/2000/svg"><circle cx="25" cy="25" r="23.5" fill="#F6F6F6" stroke="#FF834D" stroke-width="3"/><path d="M17.605 24.82v9.129h-2.5c-.7 0-1.255.609-1.255 1.332 0 .723.555 1.332 1.255 1.332h7.455c.7 0 1.254-.609 1.254-1.332 0-.723-.555-1.332-1.254-1.332h-2.501V15.514h11.517l-3.101 2.993h0l-.006.005c-.237.254-.427.584-.427.989 0 .39.124.729.436.997l3.098 2.99H23.83c-.7 0-1.255.609-1.255 1.332 0 .723.555 1.332 1.255 1.332h11.045c.506 0 1.004-.336 1.19-.869a1.399 1.399 0 00-.308-1.452h0l-.005-.005L31.28 19.5l4.472-4.325h0l.005-.005c.369-.394.493-.925.308-1.452-.185-.528-.625-.869-1.19-.869H18.86c-.7 0-1.255.609-1.255 1.332V24.82z" fill="#FF834D" stroke="#FF834D" stroke-width=".3"/></svg>