<svg width="95" height="95" fill="none" xmlns="http://www.w3.org/2000/svg"><path d="M95 47.5C95 73.734 73.734 95 47.5 95 21.267 95 0 73.734 0 47.5 0 21.267 21.267 0 47.5 0 73.734 0 95 21.267 95 47.5z" fill="#262626"/><path d="M57.86 42.548a10.33 10.33 0 10-20.659 0 10.33 10.33 0 0020.659 0zm-10.33 6.197a6.198 6.198 0 11.001-12.395 6.198 6.198 0 010 12.395z" fill="#fff"/><path d="M46.617 20.914a21.774 21.774 0 00-16.26 8.186 21.802 21.802 0 00-4.372 17.68c.042.261.097.521.166.778a21.61 21.61 0 001.442 4.266c2.189 5.19 6.98 13.181 17.385 21.796a2.076 2.076 0 003.396-1.79 2.078 2.078 0 00-.74-1.407C37.873 62.306 33.433 54.927 31.4 50.111a17.815 17.815 0 01-1.203-3.55c-.063-.239-.084-.384-.104-.498a17.654 17.654 0 013.503-14.34 17.636 17.636 0 0113.166-6.657 17.626 17.626 0 0112.88 4.938A17.645 17.645 0 0165.03 42.71c0 1.129-.108 2.255-.321 3.363 0 0 0 .208-.115.54a17.163 17.163 0 01-1.213 3.55 49.252 49.252 0 01-10.498 15.04 2.078 2.078 0 002.977 2.895 53.32 53.32 0 0011.307-16.223 21.006 21.006 0 001.473-4.328c.104-.436.145-.695.145-.695a22.08 22.08 0 00.394-4.152 21.809 21.809 0 00-6.656-15.688 21.78 21.78 0 00-15.905-6.098z" fill="#fff"/></svg>