<svg width="329" height="329" fill="none" xmlns="http://www.w3.org/2000/svg"><circle cx="164.463" cy="164.463" r="154.595" fill="#FF834D" stroke="#fff" stroke-width="19.735"/><path d="M201 146.5a36.503 36.503 0 00-22.532-33.722A36.5 36.5 0 10201 146.5zm-36.5 21.9a21.895 21.895 0 01-20.233-13.519 21.896 21.896 0 014.747-23.867 21.905 21.905 0 0123.867-4.747A21.906 21.906 0 01186.4 146.5a21.901 21.901 0 01-21.9 21.9z" fill="#fff"/><path d="M161.272 70.05a76.941 76.941 0 00-31.893 8.17 76.989 76.989 0 00-25.565 20.757 77.067 77.067 0 00-15.452 62.475c.148.927.344 1.845.587 2.751a76.338 76.338 0 005.095 15.075c7.734 18.34 24.67 46.582 61.436 77.026a7.338 7.338 0 0010.337-.954 7.348 7.348 0 00-.953-10.343c-34.493-28.683-50.182-54.762-57.367-71.781a62.88 62.88 0 01-4.252-12.544c-.22-.843-.294-1.357-.367-1.76a62.386 62.386 0 0112.379-50.673 62.316 62.316 0 0146.528-23.528 62.284 62.284 0 0145.517 17.452 62.369 62.369 0 0119.035 44.901 63.269 63.269 0 01-1.136 11.884s0 .734-.403 1.908a60.642 60.642 0 01-4.289 12.544 174.06 174.06 0 01-37.096 53.147 7.343 7.343 0 00.146 10.38 7.337 7.337 0 0010.374-.146 188.447 188.447 0 0039.956-57.329 74.303 74.303 0 005.205-15.295c.366-1.541.513-2.458.513-2.458A77.919 77.919 0 00241 147.038 77.053 77.053 0 00217.477 91.6a76.966 76.966 0 00-56.205-21.55z" fill="#fff"/></svg>