<svg width="40" height="40" fill="none" xmlns="http://www.w3.org/2000/svg"><circle cx="20" cy="20" r="18.5" fill="#fff" stroke="#FF834D" stroke-width="3"/><path d="M26.912 18.538c-.158-.364-.525-.572-.944-.572h-3.407l1.834-9.728c.105-.469-.157-.937-.576-1.145-.42-.208-.944-.052-1.258.312l-4.572 5.576c-.441.538-.84 1.372-.395 1.909.521.63 1.536-.037 2.058-.666l1.86-2.24-1.258 6.814c-.052.312 0 .624.21.832.21.209.472.365.786.365h2.516l-6.29 7.959 1.258-6.815c.053-.312 0-.624-.21-.832a1.071 1.071 0 00-.786-.312h-2.516l1.231-1.442c.51-.596.998-1.582.347-2.02-.614-.413-1.49.152-1.964.72l-2.602 3.106a.935.935 0 00-.105 1.092c.158.364.525.572.944.572h3.407l-1.835 9.729c-.104.468.158.936.577 1.144.157.052.262.104.42.104.314 0 .628-.156.838-.416L26.754 19.63a1.04 1.04 0 00.157-1.092z" fill="#FF834D"/></svg>