<svg width="330" height="330" fill="none" xmlns="http://www.w3.org/2000/svg"><circle cx="165" cy="165" r="155.132" stroke="#262626" stroke-width="19.735"/><path fill-rule="evenodd" clip-rule="evenodd" d="M243.757 116.936c0 36.23-22.168 57.967-60.268 57.967h-29.788v14.492h20.196c5.542 0 10.391 5.072 10.391 10.868 0 5.797-4.849 10.869-10.391 10.869h-20.196v39.852c0 5.797-4.849 10.869-10.391 10.869s-10.391-5.072-10.391-10.869v-39.852h-24.245c-5.542 0-10.391-5.072-10.391-10.869 0-5.796 4.849-10.868 10.391-10.868h24.245v-14.492h-24.245c-5.542 0-10.391-5.072-10.391-10.869 0-5.796 4.849-10.868 10.391-10.868h24.245V77.084c0-5.796 4.849-10.868 10.391-10.868h40.179c40.178 0 60.268 16.665 60.268 50.72zm-60.268-28.983h-29.788v65.213h29.788c26.324 0 39.486-11.594 39.486-36.23 0-14.491-2.771-28.983-39.486-28.983z" fill="#262626"/><path d="M205.702 190.5c-5.165 0-9.352 4.379-9.352 9.782 0 5.402 4.187 9.782 9.352 9.782h28.703c5.165 0 9.352-4.38 9.352-9.782 0-5.403-4.187-9.782-9.352-9.782h-28.703z" fill="#262626"/></svg>