<svg width="60" height="60" fill="none" xmlns="http://www.w3.org/2000/svg"><circle cx="30" cy="30" r="28.2" fill="#262626" stroke="#BDD3F5" stroke-width="3.6"/><path fill-rule="evenodd" clip-rule="evenodd" d="M43 21.074c0 6.482-3.962 10.37-10.771 10.37h-5.324v2.593h3.61c.99 0 1.856.907 1.856 1.944 0 1.038-.866 1.945-1.857 1.945h-3.61v7.13c0 1.037-.866 1.944-1.856 1.944-.99 0-1.857-.907-1.857-1.944v-7.13h-4.334c-.99 0-1.857-.907-1.857-1.945 0-1.037.867-1.944 1.857-1.944h4.334v-2.593h-4.334c-.99 0-1.857-.907-1.857-1.944s.867-1.944 1.857-1.944h4.334V13.944c0-1.037.866-1.944 1.857-1.944h7.18C39.41 12 43 14.982 43 21.074zM32.23 15.89h-5.324v11.667h5.324c4.704 0 7.057-2.075 7.057-6.482 0-2.593-.495-5.185-7.057-5.185z" fill="#BDD3F5"/><path d="M36.199 34.235c-.923 0-1.672.783-1.672 1.75 0 .966.749 1.75 1.672 1.75h5.13c.923 0 1.671-.784 1.671-1.75 0-.967-.748-1.75-1.671-1.75h-5.13z" fill="#BDD3F5"/></svg>