<svg width="60" height="60" fill="none" xmlns="http://www.w3.org/2000/svg"><circle cx="30" cy="30" r="28.2" fill="#262626" stroke="#FF834D" stroke-width="3.6"/><path d="M24.346 18.483c-.481.607-.344 1.415.276 1.887.275.202.619.337.963.27l8.108-.54A1.411 1.411 0 0035 18.686c-.069-.741-.688-1.28-1.445-1.28l-8.108.539c-.344 0-.62.134-.894.337-.07.067-.138.067-.207.202zm-7 22.102c-.482.54-.482 1.416.137 1.888.55.471 1.445.471 1.927-.068l21.036-20.62-.757 12.672c-.069.742.55 1.416 1.307 1.416.757 0 1.445-.54 1.445-1.28l.964-16.178c.068-.741-.55-1.415-1.308-1.415-.413 0-.757.135-1.1.404L17.482 40.451l-.137.134z" fill="#FF834D" stroke="#FF834D" stroke-width="1.417" stroke-miterlimit="10"/></svg>