<svg width="91" height="43" fill="none" xmlns="http://www.w3.org/2000/svg"><path d="M10.561 8.106l6.23 9.022h-3.487L7.939 9.432H5.365v7.696H2.309V2.87H0L1.54 0h3.825v6.779h2.574L13.039 0h3.464l-5.942 8.106zm5.293 2.846c0-1.335.304-2.5.914-3.498a5.839 5.839 0 012.43-2.147 7.498 7.498 0 013.32-.748c1.218 0 2.317.242 3.295.724a5.69 5.69 0 012.43 2.22c.593.964.89 2.114.89 3.45 0 1.35-.297 2.516-.89 3.497a6.064 6.064 0 01-2.43 2.244 7.156 7.156 0 01-3.296.771 7.265 7.265 0 01-3.296-.771 5.971 5.971 0 01-2.477-2.244c-.594-.997-.89-2.163-.89-3.498zm51.89-6.007h2.719V6.61a4.083 4.083 0 011.66-1.472c.706-.354 1.612-.53 2.718-.53 1.139 0 2.15.257 3.032.772.85.53 1.507 1.286 1.972 2.267.481.965.722 2.075.722 3.33 0 1.27-.24 2.396-.722 3.377-.465.964-1.123 1.712-1.972 2.243a4.21 4.21 0 01-1.42.603 6.08 6.08 0 01-1.612.217c-.946 0-1.652-.072-2.117-.217-.962-.29-1.644-.772-2.044-1.447v5.693h-2.936v-16.5zm-37.047 0h2.91v4.632h4.98V4.945h2.887v12.183h-2.886v-5.139h-4.98v5.139h-2.911V4.945zm12.052 0h11.187v2.316h-4.138v9.867h-2.959V7.26h-4.09V4.945zm15.204 0c1.09 2.992 2.085 5.95 2.983 8.878.85-2.895 1.813-5.854 2.887-8.878h2.935L62.284 17.37c-.37 1.013-.722 1.793-1.059 2.34a3.58 3.58 0 01-1.371 1.23c-.53.29-1.235.434-2.117.434-.497 0-.77-.008-.818-.024l-.986-2.316a5.59 5.59 0 001.13.097c.545 0 .987-.08 1.323-.241.305-.129.538-.306.698-.531.16-.209.297-.474.409-.796L54.874 4.945h3.08zm-39.14 5.983c0 1.335.32 2.356.962 3.064.641.691 1.532 1.037 2.67 1.037 1.155 0 2.053-.346 2.695-1.037.657-.708.986-1.73.986-3.064 0-1.303-.32-2.284-.962-2.943-.642-.676-1.548-1.013-2.719-1.013-1.154 0-2.053.337-2.694 1.013-.626.66-.939 1.64-.939 2.943zm51.794.024c.032 1.206.353 2.171.963 2.895.609.724 1.467 1.085 2.574 1.085 1.106 0 1.956-.361 2.55-1.085.61-.724.922-1.689.938-2.895-.016-1.19-.329-2.139-.938-2.846-.594-.724-1.444-1.086-2.55-1.086-1.107 0-1.965.354-2.574 1.061-.61.708-.93 1.665-.963 2.871z" fill="#222"/><path d="M.288 23.816c.991-.837 1.983-1.438 2.974-1.801.993-.38 2.088-.569 3.287-.569 2.64 0 4.758.83 6.358 2.488a7.816 7.816 0 011.703 2.796c.4 1.059.6 2.22.6 3.484 0 1.69-.344 3.183-1.032 4.479a7.707 7.707 0 01-2.998 3.175c-1.28.743-2.776 1.114-4.487 1.114-.88 0-1.695-.095-2.447-.285a7.735 7.735 0 01-2.11-.9c-.673-.41-1.384-.987-2.136-1.73l1.32-1.445c1.28 1.169 2.454 1.903 3.526 2.203a6.933 6.933 0 001.87.261c1.153 0 2.184-.26 3.096-.782a5.867 5.867 0 002.183-2.18c.544-.932.848-1.99.912-3.175H4.414V29.1h8.469c-.112-1.121-.448-2.125-1.008-3.01a5.551 5.551 0 00-2.184-2.014c-.91-.49-1.95-.734-3.118-.734-.895 0-1.743.15-2.543.45-.783.3-1.599.814-2.446 1.54L.288 23.816zm21.483 9.526h-2.087v5.284H17.62V26.66h2.063v5.024h2.111l3.983-5.024h2.207l-4.534 5.759 4.917 6.208h-2.35l-4.247-5.284zm13.153 5.616c-1.247 0-2.342-.253-3.286-.758-.976-.522-1.727-1.24-2.255-2.157-.528-.916-.792-1.974-.792-3.175v-.284c0-1.248.272-2.338.816-3.27a5.509 5.509 0 012.23-2.204c.96-.522 2.047-.782 3.263-.782 1.136 0 2.111.173 2.927.521.816.332 1.552.893 2.207 1.682l-1.295 1.256c-.56-.647-1.144-1.098-1.752-1.35-.591-.269-1.295-.403-2.11-.403-.896 0-1.648.197-2.256.592-.607.395-1.08.948-1.415 1.66a5.312 5.312 0 00-.504 2.298v.284c0 .79.168 1.509.504 2.157a3.864 3.864 0 001.463 1.61c.64.396 1.391.593 2.255.593.512 0 1-.063 1.463-.19a4.177 4.177 0 001.2-.568c.368-.253.784-.64 1.248-1.161l1.343 1.114c-.703.9-1.471 1.548-2.303 1.943-.816.395-1.8.592-2.95.592zm12.313-10.64v10.308h-2.063V28.318h-4.247V26.66h10.556v1.66h-4.246zm16.727 8.223c-.848.869-1.695 1.493-2.544 1.872-.847.364-1.839.545-2.974.545-1.28 0-2.39-.26-3.334-.782a5.508 5.508 0 01-2.231-2.204c-.529-.947-.793-2.053-.793-3.317 0-1.2.257-2.291.768-3.27a5.722 5.722 0 012.184-2.252c.943-.537 2.038-.805 3.286-.805 1.76 0 3.126.513 4.102 1.54.992 1.027 1.487 2.44 1.487 4.242 0 .11-.015.403-.047.877h-9.645c.08.853.28 1.587.6 2.203.353.648.84 1.154 1.464 1.517s1.375.545 2.255.545c.832 0 1.567-.15 2.207-.45.656-.3 1.32-.806 1.991-1.517l1.224 1.256zm-2.016-5.047c-.047-1.09-.4-1.951-1.055-2.583-.64-.648-1.504-.972-2.591-.972-1.072 0-1.967.324-2.687.972-.72.631-1.16 1.492-1.319 2.583h7.652zm16.549 1.16c0 1.233-.24 2.323-.72 3.271a5.368 5.368 0 01-2.087 2.204c-.896.521-1.92.782-3.07.782-2.16 0-3.68-.672-4.559-2.014v5.995h-2.063V26.659h1.919v2.11c.943-1.612 2.52-2.418 4.726-2.418 1.12 0 2.127.253 3.023.759a5.577 5.577 0 012.087 2.204c.496.932.744 2.006.744 3.222v.119zm-2.087-.118c0-.884-.168-1.666-.504-2.346a3.916 3.916 0 00-1.488-1.564c-.624-.379-1.335-.569-2.135-.569-.815 0-1.55.182-2.207.546-.672.379-1.191.9-1.56 1.563-.367.664-.55 1.454-.55 2.37v.119c0 1.374.39 2.48 1.175 3.317.783.822 1.823 1.233 3.118 1.233.8 0 1.52-.198 2.16-.593a3.928 3.928 0 001.463-1.587c.352-.696.528-1.486.528-2.37v-.119zm12.527 6.09v-5.308h-6.069v5.308h-2.063V26.66h2.063v5h6.069v-5H91v11.967h-2.063z" fill="#FF834D"/></svg>