<svg width="183" height="50" fill="none" xmlns="http://www.w3.org/2000/svg"><g clip-path="url(#clip0_174_486)"><circle cx="26.5" cy="25.5" r="22" stroke="#E6E6E6" stroke-width="3"/><path d="M23.61 19.491c.368-.073.736-.073 1.104-.147-.294 0-.589.074-.883.074 0 .073-.147.073-.22.073zm0 0c-.147 0-.22.074-.367.074.147 0 .22 0 .367-.074zm-12.283 9.342c-.735 1.618-1.765 3.53-1.544 3.972-.074-.294.809-2.28 1.544-3.972zm9.489-8.165c-.295.221-.515.368-.515.368s.22-.22.515-.368zm.367-.22c-.073.073-.22.147-.294.147.074-.074.147-.074.294-.147z" fill="#BFBFBF"/><path d="M29.568 7.208c.883-1.103 1.324-3.163 1.324-4.707v-.735c0-.148 0-.221-.073-.295-2.575.22-3.53 1.692-3.457 4.56.073.589.147 1.104.22 1.25.368-.073.81-.073 1.25-.073h.736z" fill="#fff"/><path d="M24.86 28.244c.736-1.25 1.325-2.427 2.134-2.427 2.207.074 7.061 5.222 9.12 18.535C37.44 30.157 31.04 24.2 30.673 19.86c0 0-3.384-.515-5.958-.367-.368.073-.736.073-1.104.147-4.707 9.34-5.81 10.518-14.563 28.244a186621 186621 0 011.912-1.912c4.12-4.193 7.356-7.723 10.445-12.137 1.103-1.691 2.795-4.34 3.457-5.59zM9.048 47.736c.147-.22.294-.441.515-.736-.22.221-.368.515-.515.736z" fill="#595959"/><path d="M23.61 19.491c.074 0 .148 0 .295-.073-.074.073-.22.073-.295.073z" fill="#FAE66E"/><path d="M23.17 13.46c2.941-.662 5 .736 6.03-.22 1.177-1.03-.44-3.457-.44-3.457l-1.251-1.398 1.25-1.103c-.441 0-.809.073-1.25.073-7.576.956-10.886 8.68-16.108 16.33 4.707-3.31 7.282-5.738 9.415-7.65.588-1.619 1.397-2.354 2.353-2.575z" fill="#E6E6E6"/><path d="M29.568 7.208h-.809l.956.662-.588 1.839s3.53 4.78-1.324 5.664c-1.545.294-2.721.147-3.751.367.22 1.766-.147 2.722-.368 3.752.074 0 .22 0 .294-.074.294-.074.589-.074.883-.074 2.574-.147 5.958.368 5.958.368.147-.588.294-1.177.515-1.692 2.574-8.752 8.238-6.913 17.137-8.311a97.486 97.486 0 00-7.06-1.471c-3.531-.515-7.87-1.03-11.843-1.03z" fill="#E6E6E6"/><path d="M23.61 19.491c-.147 0-.22.074-.367.074-.883.22-1.618.588-2.133.81-.074.073-.22.146-.294.146h-.074c-.294.22-.515.368-.515.368 0 .074-1.103 2.5-1.692 3.678-1.986 4.045-3.53 7.06-5.59 11.4-1.25 2.869-2.5 5.296-3.383 8.827-.147.662-.368 1.397-.515 2.206-.074.221-.074.442-.147.662 8.9-17.579 10.003-18.756 14.71-28.17z" fill="#000"/><path d="M20.816 16.035c-2.133 1.912-4.708 4.34-9.415 7.65 1.986-.957 5.296-3.164 7.576-4.635.515-.367 1.03-.662 1.397-.956.147-.809.294-1.545.442-2.06zm3.162-.295c-.882.147-1.691.589-2.648 1.692-.147.441-.956 3.31-1.03 3.53 0 0 .148-.146.515-.367h.074c.074-.074.147-.074.294-.147.515-.294 1.177-.589 2.133-.81.147 0 .221-.073.368-.073.147-1.103.515-2.06.294-3.825zm7.282 2.28c3.31-5.001 6.4-6.03 12.283-7.281 1.471-.295 3.09-.589 4.928-1.03-8.973 1.471-14.71-.441-17.211 8.311z" fill="#8C8C8C"/><path d="M27.067 25.817c-.882 0-1.47 1.177-2.133 2.427 0 0 5.885 3.163 11.328 16.035-2.133-13.24-7.061-18.462-9.195-18.462z" fill="#000"/><path d="M11.327 28.833c.368-.883.662-1.692.736-2.06v-.22c-.368-.883-3.163-1.104-3.972-.221-.441.441-5.664 5.81-4.855 6.546.81.662 6.988.81 6.547 0-.221-.515.809-2.427 1.544-4.045zm-2.721-1.618c.294-.221 1.618-.074 1.618.294.073.368-.81 1.177-1.545 1.25-.294 0-.367-1.397-.073-1.544z" fill="#8B8B8C"/><path d="M12.063 26.626v.22c0 .369-.295 1.178-.736 2.06-.735 1.619-1.618 3.678-1.544 3.972.22.589.956 0 1.838-.367.883-.368.589-3.458.515-5.076 0 0 0-1.324-.073-.809zm-.515-.882c.588-2.134-.736-2.354-1.913-.442 1.324-.588 1.913.442 1.913.442zm12.43-10.004c1.104-.22 2.207-.073 3.752-.367 4.854-.883 1.323-5.664 1.323-5.664l.589-1.839-.956-.662-1.25 1.103 1.25 1.398s1.618 2.427.441 3.457c-1.103.956-3.09-.441-6.031.22-.956.221-1.766.957-2.354 2.575-.22.588-.368 1.25-.441 2.06 0 .22-.074.514-.074.809.368-.589.736-1.03 1.03-1.398 1.03-1.103 1.839-1.544 2.721-1.692z" fill="#000"/><path d="M10.297 27.509c-.073-.368-1.324-.515-1.618-.294-.294.22-.22 1.618.147 1.544.662-.147 1.471-.956 1.471-1.25z" fill="#fff"/><path d="M27.362 6.105c-.074-2.942.956-4.34 3.457-4.634 0 .074 0 .147.073.294v.736l.147-.22L32.216.146c-1.839-.294-3.751.147-4.78 1.398-.81 1.03-1.104 2.574-.074 4.56z" fill="#000"/><path d="M68.868 33.999c3.555 0 6.07 1.832 6.07 4.129 0 2.27-2.515 4.13-6.07 4.13h-6.426V28.611h10.965v2.516H65.45v2.844h3.418v.027zm0 5.742c1.969 0 3.035-.738 3.035-1.613 0-.902-1.066-1.613-3.035-1.613v-.028H65.45v3.254h3.418zM88.54 28.585h2.953l-9.079 18.211-2.379-1.175 1.586-3.145-6.918-13.891h2.953l4.922 9.871c.192.438.301.903.301 1.367v.493h.41v-.493c0-.464.11-.93.329-1.367l4.922-9.871zm10.68 6.645l4.977 7.027h-3.254l-2.434-3.473c-.383-.492-.574-1.12-.574-1.75v-.082h-.41v.082a3.02 3.02 0 01-.547 1.75l-2.461 3.473H91.29l4.95-7.027-4.704-6.618h3.254l2.188 3.063c.355.52.547 1.148.547 1.75v.11h.41v-.11c0-.602.191-1.23.574-1.75l2.16-3.063h3.254L99.22 35.23zm18.614-6.645h2.953l-9.079 18.211-2.379-1.175 1.586-3.145-6.918-13.891h2.953l4.922 9.871c.192.438.301.903.301 1.367v.493h.41v-.493c0-.464.11-.93.329-1.367l4.922-9.871zm13.387.027h3.035v13.645h-3.035V38.84h-5.66c-2.516 0-4.539-1.695-4.539-3.8v-6.427h3.007v6.426c0 .629.684 1.149 1.532 1.149h5.66v-7.575zm20.408 6.809c0 .383-.027.766-.109 1.148h-12.989c.574 1.97 2.57 3.418 4.949 3.418a5.458 5.458 0 003.828-1.53h3.555c-1.285 2.46-4.101 4.156-7.383 4.156-4.484 0-8.121-3.2-8.121-7.192 0-3.965 3.637-7.192 8.121-7.192 4.075 0 7.438 2.625 8.04 6.07.082.356.109.74.109 1.122zM139.543 34.3h8.887c-.547-1.969-2.571-3.418-4.95-3.418-2.215 0-4.129 1.285-4.812 3.035a2.747 2.747 0 01-.329.629l-.519.766.355.218.52-.793c.191-.273.492-.437.848-.437zm12.016-5.688h14.383v2.27h-5.687v11.375h-3.036V30.882h-5.66v-2.27zm27.557 0h3.035v13.645h-3.035v-6.836c0-2.488-2.27-4.54-5.113-4.54-2.817 0-5.114 2.052-5.114 4.54 0 2.516 1.531 4.566 3.418 4.566 1.887 0 3.418-1.722 3.418-3.8h3.008a6.418 6.418 0 01-6.426 6.426c-3.555 0-6.426-3.2-6.426-7.192 0-3.965 3.637-7.192 8.122-7.192 1.285 0 2.515.274 3.582.739.711.3 1.258.847 1.586 1.558l.519 1.203.383-.164-.684-1.531a3.22 3.22 0 01-.273-1.23v-.192zM75.294 10.922h9.589v1.513H81.09v7.583h-2.024v-7.583h-3.773v-1.513zm20.395 4.539c0 .255-.019.51-.073.765h-8.66c.383 1.313 1.714 2.28 3.3 2.28a3.64 3.64 0 002.552-1.022h2.37c-.857 1.641-2.734 2.771-4.922 2.771-2.99 0-5.414-2.133-5.414-4.794 0-2.643 2.424-4.795 5.414-4.795 2.716 0 4.959 1.75 5.36 4.047.054.237.073.493.073.748zm-8.058-.748h5.925c-.365-1.312-1.714-2.278-3.3-2.278-1.476 0-2.752.856-3.208 2.023a1.835 1.835 0 01-.219.42l-.346.51.237.146.346-.529a.675.675 0 01.565-.292zm14.186-4.028c3.008 0 5.433 2.15 5.433 4.794 0 2.662-1.914 4.794-4.284 4.794s-4.302-1.914-4.302-4.284h2.023c0 1.386 1.021 2.534 2.279 2.534 1.239 0 2.26-1.367 2.26-3.044 0-1.659-1.513-3.026-3.409-3.026-1.877 0-3.409 1.367-3.409 3.026v7.584h-2.005V10.94h2.005v.127c0 .274-.054.566-.164.82l-.456 1.022.237.109.365-.802c.2-.474.583-.839 1.04-1.04a6.074 6.074 0 012.387-.491zm11.59 0c3.008 0 5.432 2.15 5.432 4.794 0 2.662-1.914 4.794-4.284 4.794s-4.302-1.914-4.302-4.284h2.023c0 1.386 1.021 2.534 2.279 2.534 1.24 0 2.261-1.367 2.261-3.044 0-1.659-1.513-3.026-3.409-3.026-1.878 0-3.409 1.367-3.409 3.026v7.584h-2.006V10.94h2.006v.127c0 .274-.055.566-.164.82l-.456 1.022.237.109.365-.802c.2-.474.583-.839 1.039-1.04a6.076 6.076 0 012.388-.491zm13.74.237h2.024v9.096h-2.024v-5.815c0-.219.037-.438.11-.638l.273-.839-.255-.073-.237.693a1.908 1.908 0 01-.383.675l-5.068 5.997h-2.005v-9.096h2.005v5.815c0 .219-.036.42-.091.638l-.292.82.256.091.237-.71c.091-.238.218-.474.382-.657l5.068-5.997zm2.498 0h9.589v1.513h-3.792v7.583h-2.024v-7.583h-3.773v-1.513zm14.962-.256c3.008 0 5.433 2.152 5.433 4.795 0 2.661-2.425 4.794-5.433 4.794-2.989 0-5.414-2.133-5.414-4.794 0-2.643 2.425-4.795 5.414-4.795zm0 7.84c1.896 0 3.409-1.368 3.409-3.045 0-1.677-1.513-3.026-3.409-3.026-1.877 0-3.409 1.349-3.409 3.026 0 1.677 1.532 3.044 3.409 3.044zm11.579-7.821c3.008 0 5.433 2.15 5.433 4.794 0 2.662-1.915 4.794-4.284 4.794-2.37 0-4.303-1.914-4.303-4.284h2.024c0 1.386 1.021 2.534 2.279 2.534 1.239 0 2.26-1.367 2.26-3.044 0-1.659-1.513-3.026-3.409-3.026-1.878 0-3.409 1.367-3.409 3.026v7.584h-2.005V10.94h2.005v.127c0 .274-.055.566-.164.82l-.456 1.022.237.109.365-.802c.2-.474.583-.839 1.039-1.04a6.076 6.076 0 012.388-.491zm13.741.237h2.023v9.096h-2.023v-5.815c0-.219.036-.438.109-.638l.273-.839-.255-.073-.237.693c-.091.255-.2.474-.383.675l-5.067 5.997h-2.006v-9.096h2.006v5.815c0 .219-.037.42-.092.638l-.291.82.255.091.237-.71a2.14 2.14 0 01.383-.657l5.068-5.997zm6.544 0h5.323V20h-2.023v-3.008h-3.154L175.268 20h-2.206l1.112-2.443c.091-.237.274-.42.511-.547l.328-.164-.11-.237c-.419.2-.82.018-1.203-.291-.656-.51-1.002-1.568-1.002-2.407 0-1.823 1.531-2.99 3.773-2.99zm3.3 4.539v-3.026h-3.3c-1.185 0-1.768.802-1.768 1.476 0 .657.583 1.55 1.768 1.55h3.3z" fill="#262626"/></g><defs><clipPath id="clip0_174_486"><path fill="#fff" d="M0 0h183v49.869H0z"/></clipPath></defs></svg>