<svg width="142" height="44" fill="none" xmlns="http://www.w3.org/2000/svg"><path d="M.928 1.048h12.624V3.04H8.56v9.984H5.896V3.04H.928V1.048zm26.85 5.976c0 .336-.024.672-.096 1.008h-11.4c.504 1.728 2.256 3 4.344 3 1.344 0 2.52-.528 3.36-1.344h3.12c-1.128 2.16-3.6 3.648-6.48 3.648-3.936 0-7.128-2.808-7.128-6.312 0-3.48 3.192-6.312 7.128-6.312 3.576 0 6.528 2.304 7.056 5.328.072.312.096.648.096.984zM17.17 6.04h7.8c-.48-1.728-2.256-3-4.344-3-1.944 0-3.624 1.128-4.224 2.664a2.418 2.418 0 01-.288.552l-.456.672.312.192.456-.696a.889.889 0 01.744-.384zM35.847.736c3.96 0 7.152 2.832 7.152 6.312 0 3.504-2.52 6.312-5.64 6.312-3.12 0-5.664-2.52-5.664-5.64h2.664c0 1.824 1.344 3.336 3 3.336 1.632 0 2.976-1.8 2.976-4.008 0-2.184-1.992-3.984-4.488-3.984-2.472 0-4.488 1.8-4.488 3.984v9.984h-2.64V1.072h2.64v.168c0 .36-.072.744-.216 1.08l-.6 1.344.312.144.48-1.056a2.627 2.627 0 011.368-1.368 8.002 8.002 0 013.144-.648zm15.258 0c3.96 0 7.152 2.832 7.152 6.312 0 3.504-2.52 6.312-5.64 6.312-3.12 0-5.664-2.52-5.664-5.64h2.664c0 1.824 1.344 3.336 3 3.336 1.632 0 2.976-1.8 2.976-4.008 0-2.184-1.992-3.984-4.488-3.984-2.472 0-4.488 1.8-4.488 3.984v9.984h-2.64V1.072h2.64v.168c0 .36-.072.744-.216 1.08l-.6 1.344.312.144.48-1.056a2.627 2.627 0 011.368-1.368 8.002 8.002 0 013.144-.648zm18.09.312h2.664v11.976h-2.664V5.368c0-.288.048-.576.144-.84l.36-1.104-.337-.096-.311.912c-.12.336-.264.624-.505.888l-6.672 7.896h-2.64V1.048h2.64v7.656c0 .288-.047.552-.12.84l-.383 1.08.335.12.313-.936a2.82 2.82 0 01.504-.864l6.672-7.896zm3.288 0h12.624V3.04h-4.992v9.984H77.45V3.04h-4.968V1.048zM92.18.712c3.96 0 7.152 2.832 7.152 6.312 0 3.504-3.192 6.312-7.152 6.312-3.936 0-7.128-2.808-7.128-6.312 0-3.48 3.192-6.312 7.128-6.312zm0 10.32c2.496 0 4.488-1.8 4.488-4.008S94.677 3.04 92.181 3.04c-2.472 0-4.488 1.776-4.488 3.984s2.016 4.008 4.488 4.008zM107.425.736c3.96 0 7.152 2.832 7.152 6.312 0 3.504-2.52 6.312-5.64 6.312-3.12 0-5.664-2.52-5.664-5.64h2.664c0 1.824 1.344 3.336 3 3.336 1.632 0 2.976-1.8 2.976-4.008 0-2.184-1.992-3.984-4.488-3.984-2.472 0-4.488 1.8-4.488 3.984v9.984h-2.64V1.072h2.64v.168c0 .36-.072.744-.216 1.08l-.6 1.344.312.144.48-1.056a2.627 2.627 0 011.368-1.368 8.002 8.002 0 013.144-.648zm18.09.312h2.664v11.976h-2.664V5.368c0-.288.048-.576.144-.84l.36-1.104-.336-.096-.312.912c-.12.336-.264.624-.504.888l-6.672 7.896h-2.64V1.048h2.64v7.656c0 .288-.048.552-.12.84l-.384 1.08.336.12.312-.936a2.82 2.82 0 01.504-.864l6.672-7.896zm8.616 0h7.008V13h-2.664V9.04h-4.152L132.547 13h-2.904l1.464-3.216c.12-.312.36-.552.672-.72l.432-.216-.144-.312c-.552.264-1.08.024-1.584-.384-.864-.672-1.32-2.064-1.32-3.168 0-2.4 2.016-3.936 4.968-3.936zm4.344 5.976V3.04h-4.344c-1.56 0-2.328 1.056-2.328 1.944 0 .864.768 2.04 2.328 2.04h4.344zM7.312 32.776c3.12 0 5.328 1.608 5.328 3.624 0 1.992-2.208 3.624-5.328 3.624h-5.64V28.048h9.624v2.208H4.312v2.496h3v.024zm0 5.04c1.728 0 2.664-.648 2.664-1.416 0-.792-.936-1.416-2.664-1.416v-.024h-3v2.856h3zm17.266-9.792h2.592l-7.968 15.984-2.088-1.032 1.392-2.76-6.072-12.192h2.592l4.32 8.664c.168.384.264.792.264 1.2v.432h.36v-.432c0-.408.096-.816.288-1.2l4.32-8.664zm9.374 5.832l4.368 6.168h-2.856l-2.136-3.048a2.51 2.51 0 01-.504-1.536v-.072h-.36v.072a2.65 2.65 0 01-.48 1.536l-2.16 3.048h-2.832l4.344-6.168-4.128-5.808h2.856l1.92 2.688c.312.456.48 1.008.48 1.536v.096h.36v-.096c0-.528.168-1.08.504-1.536l1.896-2.688h2.856l-4.128 5.808zm16.337-5.832h2.591l-7.968 15.984-2.087-1.032 1.392-2.76-6.072-12.192h2.591l4.32 8.664c.169.384.265.792.265 1.2v.432h.36v-.432c0-.408.096-.816.288-1.2l4.32-8.664zm11.75.024h2.664v11.976h-2.664v-3H57.07c-2.208 0-3.984-1.488-3.984-3.336v-5.64h2.64v5.64c0 .552.6 1.008 1.344 1.008h4.968v-6.648zm17.911 5.976c0 .336-.024.672-.096 1.008h-11.4c.504 1.728 2.256 3 4.344 3 1.344 0 2.52-.528 3.36-1.344h3.12c-1.128 2.16-3.6 3.648-6.48 3.648-3.936 0-7.128-2.808-7.128-6.312 0-3.48 3.192-6.312 7.128-6.312 3.576 0 6.528 2.304 7.056 5.328.072.312.096.648.096.984zm-10.608-.984h7.8c-.48-1.728-2.256-3-4.344-3-1.944 0-3.624 1.128-4.224 2.664a2.418 2.418 0 01-.288.552l-.456.672.312.192.456-.696a.889.889 0 01.744-.384zm10.547-4.992h12.624v1.992H87.52v9.984h-2.664V30.04h-4.968v-1.992zm24.186 0h2.664v11.976h-2.664v-6c0-2.184-1.992-3.984-4.488-3.984-2.472 0-4.488 1.8-4.488 3.984 0 2.208 1.344 4.008 3 4.008s3-1.512 3-3.336h2.64c0 3.12-2.52 5.64-5.64 5.64-3.12 0-5.64-2.808-5.64-6.312 0-3.48 3.192-6.312 7.128-6.312 1.128 0 2.208.24 3.144.648a2.671 2.671 0 011.392 1.368l.456 1.056.336-.144-.6-1.344a2.826 2.826 0 01-.24-1.08v-.168z" fill="#262626"/></svg>