<svg width="143" height="44" fill="none" xmlns="http://www.w3.org/2000/svg"><path d="M.927.906h12.774V2.92H8.65v10.103H5.954V2.921H.927V.906zm27.17 6.047c0 .34-.024.68-.097 1.02H16.464c.51 1.748 2.283 3.036 4.396 3.036a4.85 4.85 0 003.4-1.36h3.157c-1.141 2.185-3.643 3.691-6.557 3.691-3.983 0-7.213-2.841-7.213-6.387 0-3.522 3.23-6.387 7.213-6.387 3.619 0 6.606 2.331 7.14 5.391.073.316.097.656.097.996zm-10.734-.996h7.893c-.486-1.748-2.283-3.036-4.396-3.036-1.967 0-3.667 1.142-4.274 2.696-.073.194-.17.389-.292.559l-.461.68.316.194.461-.704a.9.9 0 01.753-.389zM36.262.59c4.007 0 7.237 2.866 7.237 6.387 0 3.546-2.55 6.387-5.707 6.387s-5.732-2.55-5.732-5.707h2.696c0 1.846 1.36 3.376 3.036 3.376 1.651 0 3.011-1.822 3.011-4.056 0-2.21-2.016-4.031-4.541-4.031-2.502 0-4.542 1.821-4.542 4.031V17.08h-2.67V.93h2.671v.17c0 .364-.073.753-.218 1.093l-.607 1.36.315.146.486-1.069a2.658 2.658 0 011.384-1.384A8.097 8.097 0 0136.262.59zm15.44 0c4.006 0 7.236 2.866 7.236 6.387 0 3.546-2.55 6.387-5.707 6.387S47.5 10.814 47.5 7.657h2.696c0 1.846 1.36 3.376 3.035 3.376 1.652 0 3.012-1.822 3.012-4.056 0-2.21-2.016-4.031-4.542-4.031-2.501 0-4.541 1.821-4.541 4.031V17.08h-2.672V.93h2.672v.17c0 .364-.073.753-.219 1.093l-.607 1.36.316.146.486-1.069a2.658 2.658 0 011.384-1.384A8.097 8.097 0 0151.7.59zm18.304.316h2.696v12.118h-2.696V5.277a2.5 2.5 0 01.146-.85l.364-1.117-.34-.097-.315.923c-.122.34-.267.631-.51.898l-6.752 7.99h-2.671V.906h2.671v7.747c0 .291-.048.558-.121.85l-.389 1.093.34.121.316-.947c.121-.316.291-.631.51-.874l6.751-7.99zm3.328 0h12.774V2.92h-5.052v10.103h-2.695V2.921h-5.027V.906zm19.933-.34c4.007 0 7.237 2.865 7.237 6.387 0 3.546-3.23 6.387-7.237 6.387-3.983 0-7.213-2.841-7.213-6.387 0-3.522 3.23-6.387 7.213-6.387zm0 10.443c2.525 0 4.541-1.822 4.541-4.056S95.792 2.92 93.267 2.92c-2.502 0-4.542 1.798-4.542 4.032s2.04 4.056 4.542 4.056zM108.692.59c4.007 0 7.237 2.866 7.237 6.387 0 3.546-2.55 6.387-5.707 6.387s-5.731-2.55-5.731-5.707h2.695c0 1.846 1.36 3.376 3.036 3.376 1.651 0 3.011-1.822 3.011-4.056 0-2.21-2.015-4.031-4.541-4.031-2.501 0-4.541 1.821-4.541 4.031V17.08h-2.672V.93h2.672v.17c0 .364-.073.753-.219 1.093l-.607 1.36.316.146.485-1.069a2.656 2.656 0 011.385-1.384 8.095 8.095 0 013.181-.656zm18.305.316h2.696v12.118h-2.696V5.277c0-.291.049-.583.146-.85l.364-1.117-.34-.097-.316.923c-.121.34-.267.631-.51.898l-6.751 7.99h-2.671V.906h2.671v7.747c0 .291-.049.558-.121.85l-.389 1.093.34.121.316-.947c.121-.316.291-.631.51-.874l6.751-7.99zm8.719 0h7.091V13h-2.695V8.993h-4.202L134.113 13h-2.939l1.482-3.254c.121-.316.364-.559.68-.729l.437-.218-.146-.316c-.558.267-1.093.024-1.603-.389-.874-.68-1.335-2.088-1.335-3.205 0-2.429 2.04-3.983 5.027-3.983zm4.396 6.047V2.92h-4.396c-1.579 0-2.356 1.069-2.356 1.968 0 .874.777 2.064 2.356 2.064h4.396zM7.387 31.69c3.157 0 5.392 1.627 5.392 3.667 0 2.016-2.235 3.667-5.392 3.667H1.68V26.906h9.739v2.234H4.35v2.526h3.036v.024zm0 5.1c1.749 0 2.696-.656 2.696-1.433 0-.801-.947-1.433-2.696-1.433V33.9H4.351v2.89h3.036zm17.471-9.909h2.623l-8.063 16.175-2.113-1.045 1.409-2.792L12.57 26.88h2.623l4.371 8.768c.17.388.267.801.267 1.214v.437h.364v-.437c0-.413.098-.826.292-1.214l4.371-8.768zm9.486 5.902l4.42 6.241h-2.89l-2.162-3.084a2.539 2.539 0 01-.51-1.554v-.073h-.364v.073a2.68 2.68 0 01-.486 1.554l-2.185 3.084H27.3l4.396-6.241-4.177-5.877h2.89l1.942 2.72c.316.461.486 1.02.486 1.554v.097h.364v-.097c0-.534.17-1.093.51-1.554l1.92-2.72h2.89l-4.178 5.877zm16.531-5.902h2.623l-8.063 16.175-2.113-1.045 1.409-2.792-6.144-12.338h2.623l4.371 8.768c.17.388.267.801.267 1.214v.437h.364v-.437c0-.413.098-.826.292-1.214l4.371-8.768zm11.89.025h2.696v12.118h-2.696V35.99h-5.027c-2.234 0-4.031-1.506-4.031-3.376v-5.707h2.671v5.707c0 .558.607 1.02 1.36 1.02h5.027v-6.727zm18.125 6.047c0 .34-.024.68-.097 1.02H69.257c.51 1.748 2.283 3.036 4.396 3.036a4.85 4.85 0 003.4-1.36h3.157c-1.141 2.185-3.643 3.691-6.557 3.691-3.983 0-7.213-2.841-7.213-6.387 0-3.522 3.23-6.387 7.213-6.387 3.619 0 6.606 2.331 7.14 5.391.073.316.097.656.097.996zm-10.734-.996h7.893c-.486-1.748-2.283-3.036-4.396-3.036-1.967 0-3.667 1.142-4.274 2.696-.073.194-.17.389-.292.559l-.461.68.316.194.461-.704a.9.9 0 01.753-.389zm10.672-5.051h12.774v2.015h-5.051v10.103h-2.696V28.921h-5.027v-2.015zm24.474 0h2.696v12.118h-2.696v-6.071c0-2.21-2.015-4.032-4.541-4.032-2.501 0-4.541 1.822-4.541 4.032 0 2.234 1.36 4.056 3.035 4.056 1.676 0 3.036-1.53 3.036-3.376h2.671a5.7 5.7 0 01-5.707 5.707c-3.157 0-5.707-2.841-5.707-6.387 0-3.522 3.23-6.387 7.213-6.387 1.141 0 2.234.243 3.181.655a2.7 2.7 0 011.409 1.385l.461 1.068.34-.145-.607-1.36a2.873 2.873 0 01-.243-1.093v-.17z" fill="#fff"/></svg>