<?xml version="1.0" encoding="utf-8"?><svg viewBox="0 0 38 38" xmlns="http://www.w3.org/2000/svg" xmlns:xlink="http://www.w3.org/1999/xlink"><style>:root>svg{display:none}:root>svg:target{display:block}</style><svg fill="none" viewBox="0 0 13 20" id="icon-arrow-more" xmlns="http://www.w3.org/2000/svg"><path d="M1.891 19a.87.87 0 01-.529-.18.926.926 0 01-.322-.472.96.96 0 01.01-.578.922.922 0 01.338-.46l8.021-5.724c.25-.176.453-.413.594-.69a1.985 1.985 0 000-1.798 1.904 1.904 0 00-.594-.69L1.388 2.682a.93.93 0 01-.365-.593.954.954 0 01.142-.687.89.89 0 01.566-.386.865.865 0 01.664.139l8.022 5.724c.488.347.887.812 1.163 1.355.276.543.42 1.148.42 1.762 0 .614-.144 1.219-.42 1.762a3.733 3.733 0 01-1.163 1.355l-8.022 5.724A.868.868 0 011.89 19z" fill="currentColor"/><path fill-rule="evenodd" clip-rule="evenodd" d="M2.395 18.838a.869.869 0 01-1.033-.019.926.926 0 01-.322-.47.96.96 0 01.01-.579.922.922 0 01.338-.46l8.021-5.724c.25-.176.453-.413.594-.69a1.985 1.985 0 000-1.798 1.903 1.903 0 00-.594-.69L1.388 2.682a.93.93 0 01-.365-.593.954.954 0 01.142-.687.89.89 0 01.566-.386.865.865 0 01.664.139l8.021 5.724c.489.347.888.812 1.164 1.355.276.543.42 1.148.42 1.762 0 .614-.144 1.219-.42 1.762a3.732 3.732 0 01-1.164 1.355l-8.021 5.724zm8.08-5.643L2.452 18.92A.97.97 0 011.3 18.9a1.026 1.026 0 01-.357-.522 1.06 1.06 0 01.01-.639c.07-.206.2-.384.375-.508m0 0l8.022-5.725c.236-.167.43-.392.563-.655a1.884 1.884 0 000-1.707 1.803 1.803 0 00-.563-.654L1.33 2.764a1.03 1.03 0 01-.405-.657c-.046-.264.01-.537.157-.76a.99.99 0 01.63-.428.965.965 0 01.74.154l.002.001L10.474 6.8c.502.356.912.833 1.195 1.39a3.993 3.993 0 010 3.615 3.833 3.833 0 01-1.195 1.391" fill="currentColor"/></svg><svg fill="none" viewBox="0 0 13 20" id="icon-arrow-prev" xmlns="http://www.w3.org/2000/svg"><path d="M3.62 8.454h0c-.243.172-.441.403-.579.673a1.935 1.935 0 000 1.752c.138.27.336.501.578.673h0l8.022 5.725h0a.98.98 0 01.385.624c.044.252-.01.512-.15.724a.94.94 0 01-.597.407.915.915 0 01-.702-.146h0L2.553 13.16 3.62 8.454zm0 0L11.64 2.73a.973.973 0 00.357-.484c.066-.197.07-.41.01-.608a.975.975 0 00-.34-.497.92.92 0 00-1.092-.02h0M3.62 8.454l6.956-7.333m0 0L2.554 6.846l8.022-5.725zm-9.2 10.667c.279.55.684 1.021 1.178 1.373V6.846c-.494.351-.899.822-1.178 1.373a3.943 3.943 0 00-.426 1.784c0 .622.146 1.235.426 1.785z" fill="currentColor" stroke="currentColor" stroke-width=".1"/></svg><svg fill="none" viewBox="0 0 16 32" id="icon-attach" xmlns="http://www.w3.org/2000/svg"><path d="M6.095 0C2.738 0 0 2.556 0 5.689v18.844C0 28.651 3.588 32 8 32s8-3.349 8-7.467V5.69a1.006 1.006 0 00-.082-.413 1.063 1.063 0 00-.247-.351 1.15 1.15 0 00-.373-.235 1.215 1.215 0 00-.882 0c-.14.054-.267.134-.373.235-.106.1-.19.22-.246.351a1.003 1.003 0 00-.083.413v18.844c0 2.973-2.529 5.334-5.714 5.334-3.186 0-5.714-2.36-5.714-5.334V5.69c0-1.988 1.679-3.556 3.81-3.556 2.13 0 3.809 1.568 3.809 3.556-.002.141.026.282.082.413.056.13.14.25.247.35.106.102.233.182.372.236a1.214 1.214 0 00.883 0 1.15 1.15 0 00.372-.235c.107-.1.19-.22.247-.351.057-.131.085-.272.082-.413C12.19 2.556 9.452 0 6.095 0zM4.94 8.156c-.04.001-.08.005-.119.01a1.17 1.17 0 00-.728.357c-.187.2-.288.457-.284.721v13.867c0 2.148 1.89 3.911 4.19 3.911 2.303 0 4.191-1.763 4.191-3.91V12.8a1.004 1.004 0 00-.082-.413 1.063 1.063 0 00-.247-.351c-.106-.1-.233-.18-.372-.235a1.214 1.214 0 00-.883 0c-.14.054-.266.134-.372.235-.107.1-.19.22-.247.351a1.004 1.004 0 00-.082.413v10.311c0 1.003-.83 1.778-1.905 1.778-1.075 0-1.905-.774-1.905-1.778V9.244a1.004 1.004 0 00-.081-.417 1.063 1.063 0 00-.25-.355 1.151 1.151 0 00-.377-.236 1.215 1.215 0 00-.447-.08z" fill="currentColor"/></svg><svg fill="none" viewBox="0 0 21 22" id="icon-blog" xmlns="http://www.w3.org/2000/svg"><path d="M17.348 21.5H3.652A3.652 3.652 0 010 17.848V4.152A3.652 3.652 0 013.652.5h8.701a.913.913 0 010 1.826h-8.7a1.826 1.826 0 00-1.827 1.826v13.696a1.826 1.826 0 001.826 1.826h13.696a1.827 1.827 0 001.826-1.826V4.152a1.826 1.826 0 00-1.826-1.826.913.913 0 010-1.826A3.652 3.652 0 0121 4.152v13.696a3.652 3.652 0 01-3.652 3.652z" fill="currentColor"/><path d="M16.435 7.092H4.565a.913.913 0 010-1.826h11.87a.913.913 0 010 1.826zM16.435 11.913H4.565a.913.913 0 010-1.826h11.87a.913.913 0 110 1.826zM16.435 16.734H4.565a.913.913 0 010-1.826h11.87a.913.913 0 010 1.826z" fill="currentColor"/></svg><svg fill="none" viewBox="0 0 13 7" id="icon-caret-select" xmlns="http://www.w3.org/2000/svg"><path d="M5.57 5.056h0c.102.13.24.236.403.31.163.073.344.112.529.112.184 0 .366-.039.529-.113.162-.074.3-.18.403-.31h0L10.933.68h0a.631.631 0 01.393-.217.69.69 0 01.453.084c.134.078.228.2.26.34a.481.481 0 01-.095.404v.001h0L8.446 5.667s0 0 0 0a2.28 2.28 0 01-.847.65 2.665 2.665 0 01-1.097.233c-.382 0-.759-.08-1.097-.234a2.28 2.28 0 01-.847-.649L1.06 1.292h0A.49.49 0 01.95.986c0-.116.043-.229.122-.32a.622.622 0 01.313-.193.704.704 0 01.38.006c.124.037.231.107.306.201L5.57 5.056zm0 0L2.07.68 5.57 5.056z" fill="#262626" stroke="#262626" stroke-width=".1"/></svg><svg fill="none" viewBox="0 0 13 7" id="icon-caret-white" xmlns="http://www.w3.org/2000/svg"><path d="M5.57 5.056h0c.102.13.24.236.403.31.163.073.344.112.529.112.184 0 .366-.039.529-.113.162-.074.3-.18.403-.31h0L10.933.68h0a.631.631 0 01.393-.217.69.69 0 01.453.084c.134.078.228.2.26.34a.481.481 0 01-.095.404v.001h0L8.446 5.667s0 0 0 0a2.28 2.28 0 01-.847.65 2.665 2.665 0 01-1.097.233c-.382 0-.759-.08-1.097-.234a2.28 2.28 0 01-.847-.649L1.06 1.292h0A.49.49 0 01.95.986c0-.116.043-.229.122-.32a.622.622 0 01.313-.193.704.704 0 01.38.006c.124.037.231.107.306.201L5.57 5.056zm0 0L2.07.68 5.57 5.056z" fill="#fff" stroke="#fff" stroke-width=".1"/></svg><svg fill="none" viewBox="0 0 18 18" id="icon-close" xmlns="http://www.w3.org/2000/svg"><path d="M14.648 16.274L1.726 3.352c-.597-.597-.717-1.445-.268-1.894.449-.45 1.297-.33 1.894.268l12.922 12.922c.598.597.718 1.445.268 1.894-.449.45-1.297.33-1.894-.268z" fill="currentColor"/><path d="M16.274 3.352L3.352 16.274c-.597.597-1.445.717-1.894.268-.45-.449-.33-1.297.268-1.894L14.648 1.726c.597-.597 1.445-.717 1.894-.268.45.449.33 1.297-.268 1.894z" fill="currentColor"/></svg><svg fill="none" viewBox="0 0 23 22" id="icon-download" xmlns="http://www.w3.org/2000/svg"><path d="M20.233 4.657v12.718a2.312 2.312 0 01-2.312 2.312H4.625a2.312 2.312 0 01-2.313-2.312V4.657a1.156 1.156 0 00-2.312 0v12.718A4.625 4.625 0 004.625 22H17.92a4.625 4.625 0 004.624-4.625V4.657a1.156 1.156 0 10-2.312 0z" fill="currentColor"/><path d="M12.094 12.978l4.324-4.307a1.157 1.157 0 10-1.636-1.636l-2.347 2.33V1.156a1.156 1.156 0 10-2.312 0v8.209L7.776 7.018A1.163 1.163 0 106.14 8.67l4.318 4.319a1.157 1.157 0 001.636 0v-.012z" fill="currentColor"/></svg><svg fill="none" viewBox="0 0 29 24" id="icon-email" xmlns="http://www.w3.org/2000/svg"><path d="M23.304.751a1.31 1.31 0 00-.917.374 1.268 1.268 0 000 1.81c.243.239.574.373.917.373.59 0 1.156.23 1.573.64.417.41.65.964.65 1.542v13.265c0 .578-.233 1.133-.65 1.542-.417.41-.982.64-1.573.64H5.696c-.59 0-1.156-.23-1.573-.64a2.162 2.162 0 01-.65-1.542V5.49c0-.578.233-1.133.65-1.542.417-.41.982-.64 1.573-.64h11.187c.344 0 .674-.134.918-.374a1.268 1.268 0 000-1.81 1.31 1.31 0 00-.918-.373H5.696a4.863 4.863 0 00-3.408 1.387A4.699 4.699 0 00.875 5.49v13.265c0 1.258.508 2.463 1.413 3.352a4.863 4.863 0 003.408 1.387h17.608a4.863 4.863 0 003.408-1.387 4.699 4.699 0 001.413-3.352V5.49a4.699 4.699 0 00-1.413-3.352A4.863 4.863 0 0023.304.751z" fill="currentColor" stroke="currentColor" stroke-width=".25"/><path d="M13.818 14.487l.032.021h.049c.058.032.118.06.18.082h.001l.088.033h.002c.107.039.217.062.33.07h.01c.105-.002.21-.016.31-.044h.001l.01-.003.09-.034h.002c.062-.024.122-.053.18-.087h.047l.032-.021 8.389-5.59a1.243 1.243 0 10-1.38-2.07s0 0 0 0l-7.683 5.114-7.699-5.13a1.245 1.245 0 00-1.38 2.07l8.39 5.59z" fill="currentColor" stroke="currentColor" stroke-width=".25"/></svg><svg fill="none" viewBox="0 0 22 16" id="icon-menu" xmlns="http://www.w3.org/2000/svg"><path d="M20.137 3.01H1.863c-.845 0-1.53-.515-1.53-1.15 0-.636.685-1.15 1.53-1.15h18.274c.845 0 1.53.514 1.53 1.15 0 .635-.685 1.15-1.53 1.15zM14.9 9.15H1.767C1.16 9.15.667 8.635.667 8c0-.635.492-1.15 1.1-1.15H14.9C15.508 6.85 16 7.365 16 8c0 .635-.492 1.15-1.1 1.15zM20.137 15.29H1.863c-.845 0-1.53-.515-1.53-1.15 0-.635.685-1.15 1.53-1.15h18.274c.845 0 1.53.515 1.53 1.15 0 .635-.685 1.15-1.53 1.15z" fill="currentColor"/></svg><svg fill="none" viewBox="0 0 28 27" id="icon-phone" xmlns="http://www.w3.org/2000/svg"><path d="M23.596 15.126a3.808 3.808 0 00-1.256-.89 3.937 3.937 0 00-1.522-.333 4.03 4.03 0 00-1.516.319c-.478.202-.91.495-1.267.862l-1.907 1.835c-.239.23-.373.54-.373.865 0 .325.134.636.373.866.238.23.562.358.9.358.336 0 .66-.129.898-.358l1.907-1.835a1.21 1.21 0 01.43-.343 1.259 1.259 0 011.085 0c.17.08.316.198.43.343l3.178 3.058c.155.114.281.261.368.43a1.186 1.186 0 010 1.085 1.236 1.236 0 01-.368.43c-.23.232-.47.459-.712.679l-.064.061c-.37.334-.72.687-1.048 1.058a2.887 2.887 0 01-1.031.705 2.985 2.985 0 01-1.245.213h-.28a13.243 13.243 0 01-4.569-1.315 25.69 25.69 0 01-8.58-6.472 22.356 22.356 0 01-4.182-6.728 7.993 7.993 0 01-.636-3.542c.049-.661.35-1.282.846-1.743L5.412 2.85c.12-.146.271-.264.445-.345a1.312 1.312 0 011.113 0c.173.08.325.2.444.345.344.306.693.649 1.068 1.016l.515.501 1.582 1.523c.29.246.47.59.502.96a1.443 1.443 0 01-.502.967l-.495.483c-.426.422-.884.863-1.354 1.272a1.214 1.214 0 00-.392.649c-.057.25-.031.51.074.746a12.198 12.198 0 001.773 2.832c.49.581.998 1.126 1.507 1.627.114.124.253.224.408.295a1.31 1.31 0 001.43-.23c.123-.116.22-.255.287-.408a1.183 1.183 0 00-.012-.963 1.225 1.225 0 00-.296-.4 21.772 21.772 0 01-1.34-1.45c-.388-.462-.74-.951-1.056-1.462.267-.25.521-.502.77-.74l.47-.459c.388-.345.701-.761.92-1.224.218-.464.337-.965.35-1.473a3.657 3.657 0 00-.348-1.474 3.785 3.785 0 00-.922-1.224l-1.577-1.517-.527-.513c-.362-.361-.744-.734-1.093-1.046a3.898 3.898 0 00-1.273-.84A4.02 4.02 0 006.372 0a4.068 4.068 0 00-2.784 1.15L1.612 3.052A5.03 5.03 0 00.016 6.325c-.089 1.57.187 3.139.808 4.593a24.7 24.7 0 004.64 7.42 28.219 28.219 0 009.437 7.107A15.7 15.7 0 0020.405 27h.445a5.639 5.639 0 002.28-.428 5.452 5.452 0 001.89-1.303l.07-.074c.27-.3.556-.585.857-.856l.057-.055c.26-.239.528-.49.782-.746.383-.344.688-.76.897-1.221a3.553 3.553 0 000-2.929 3.675 3.675 0 00-.897-1.22l-3.19-3.04z" fill="currentColor"/></svg><svg fill="none" viewBox="0 0 24 30" id="icon-pin" xmlns="http://www.w3.org/2000/svg"><path d="M18 12.678c0-1.161-.352-2.295-1.011-3.26a5.973 5.973 0 00-2.693-2.162 6.126 6.126 0 00-3.466-.333 6.043 6.043 0 00-3.073 1.605 5.829 5.829 0 00-1.642 3.005 5.748 5.748 0 00.342 3.39 5.898 5.898 0 002.21 2.633 6.097 6.097 0 003.333.99 6.07 6.07 0 004.243-1.72A5.803 5.803 0 0018 12.679zm-6 3.52a3.658 3.658 0 01-2-.593 3.539 3.539 0 01-1.326-1.58 3.449 3.449 0 01-.205-2.034c.14-.683.482-1.31.985-1.803a3.626 3.626 0 011.844-.963 3.676 3.676 0 012.08.2c.658.266 1.22.718 1.615 1.297.396.579.607 1.26.607 1.956 0 .933-.38 1.829-1.054 2.49A3.642 3.642 0 0112 16.197z" fill="currentColor"/><path d="M11.575.95c-1.73.058-3.425.479-4.97 1.232A11.93 11.93 0 002.62 5.314 11.478 11.478 0 00.351 9.77a11.264 11.264 0 00-.139 4.967c.023.14.054.279.092.415.182.783.448 1.545.794 2.274 1.205 2.767 3.844 7.028 9.574 11.62a1.17 1.17 0 001.611-.144 1.084 1.084 0 00-.148-1.56c-5.376-4.327-7.821-8.261-8.94-10.829a9.29 9.29 0 01-.663-1.892c-.035-.127-.046-.205-.057-.265a9.118 9.118 0 01.1-4.027 9.29 9.29 0 011.829-3.618 9.656 9.656 0 013.224-2.544 9.996 9.996 0 017.85-.388 9.758 9.758 0 013.27 2.016 9.404 9.404 0 012.196 3.094 9.151 9.151 0 01.594 5.472s0 .11-.063.288a8.953 8.953 0 01-.668 1.892c-1.392 3-3.353 5.72-5.782 8.018a1.09 1.09 0 00-.323.787c.004.294.129.574.346.779.218.204.51.317.813.313.303-.004.592-.125.804-.335a28.433 28.433 0 006.227-8.649c.356-.738.628-1.512.81-2.307.058-.233.08-.371.08-.371a11.304 11.304 0 00-.737-6.756 11.615 11.615 0 00-2.71-3.82 12.052 12.052 0 00-4.039-2.49A12.347 12.347 0 0011.575.95z" fill="currentColor"/></svg><svg fill="none" viewBox="0 0 17 19" id="icon-play" xmlns="http://www.w3.org/2000/svg"><path d="M4.066 18.575a4.135 4.135 0 01-1.984-.511 3.952 3.952 0 01-1.533-1.451A3.826 3.826 0 010 14.599V3.964c0-.705.192-1.397.558-2.006.365-.608.89-1.11 1.52-1.454a4.142 4.142 0 014.11.081l8.878 5.32c.59.354 1.079.85 1.417 1.442a3.888 3.888 0 010 3.868 4.007 4.007 0 01-1.418 1.442l-5.348 3.21c-.2.115-.44.15-.666.095a.887.887 0 01-.543-.388.848.848 0 01-.108-.648.867.867 0 01.389-.536l5.349-3.21c.333-.2.608-.479.8-.812a2.19 2.19 0 000-2.179 2.256 2.256 0 00-.8-.812L5.26 2.06a2.328 2.328 0 00-2.314-.047 2.26 2.26 0 00-.857.819 2.19 2.19 0 00-.313 1.13v10.642c0 .397.108.787.313 1.13.206.342.502.625.857.819a2.332 2.332 0 002.314-.048.9.9 0 01.676-.112.899.899 0 01.557.391.852.852 0 01-.305 1.198 4.118 4.118 0 01-2.122.594z" fill="currentColor"/></svg><svg fill="none" viewBox="0 0 38 38" id="icon-plus" xmlns="http://www.w3.org/2000/svg"><circle cx="19" cy="19" r="17.5" stroke="currentColor" stroke-width="3"/><path d="M19 9.65a1.133 1.133 0 00-1.133 1.133v7.084h-7.084a1.133 1.133 0 100 2.266h7.084v7.084a1.133 1.133 0 102.266 0V10.783A1.133 1.133 0 0019 9.65zM28.478 17.867h-4.695a1.133 1.133 0 100 2.266h4.695a1.133 1.133 0 000-2.266z" fill="currentColor" stroke="currentColor" stroke-width=".7"/></svg><svg fill="none" viewBox="0 0 22 22" id="icon-search" xmlns="http://www.w3.org/2000/svg"><path d="M5.404 8.55a8.049 8.049 0 118.049 8.048 8.058 8.058 0 01-8.049-8.049zm14.103 0a6.054 6.054 0 10-6.054 6.053 6.059 6.059 0 006.049-6.054h.005zM.498 20.501a.998.998 0 01.295-.703L5.28 15.31a.998.998 0 011.411 1.411L2.204 21.21a.997.997 0 01-1.7-.703l-.006-.005z" fill="currentColor"/></svg></svg>